<svg xmlns="http://www.w3.org/2000/svg" xmlns:xlink="http://www.w3.org/1999/xlink" width="500" zoomAndPan="magnify" viewBox="0 0 375 374.999991" height="500" preserveAspectRatio="xMidYMid meet" version="1.0"><defs><g/><clipPath id="2ff09538cc"><path d="M 119 116 L 238 116 L 238 148 L 119 148 Z M 119 116 " clip-rule="nonzero"/></clipPath><clipPath id="0f116c58c3"><path d="M 97.414062 143.167969 C 97.414062 153.5625 101.546875 163.53125 108.894531 170.882812 C 116.246094 178.234375 126.214844 182.363281 136.609375 182.363281 L 235.464844 182.363281 C 245.859375 182.363281 255.828125 178.234375 263.179688 170.882812 C 270.53125 163.53125 274.660156 153.5625 274.660156 143.167969 C 274.660156 132.773438 270.53125 122.800781 263.179688 115.453125 C 255.828125 108.101562 245.859375 103.972656 235.464844 103.972656 L 136.609375 103.972656 C 126.214844 103.972656 116.246094 108.101562 108.894531 115.453125 C 101.546875 122.800781 97.414062 132.773438 97.414062 143.167969 Z M 97.414062 143.167969 " clip-rule="nonzero"/></clipPath><clipPath id="565bc13c2a"><path d="M 97.414062 120 L 251 120 L 251 164 L 97.414062 164 Z M 97.414062 120 " clip-rule="nonzero"/></clipPath><clipPath id="70ed52780a"><path d="M 97.414062 143.167969 C 97.414062 153.5625 101.546875 163.53125 108.894531 170.882812 C 116.246094 178.234375 126.214844 182.363281 136.609375 182.363281 L 235.464844 182.363281 C 245.859375 182.363281 255.828125 178.234375 263.179688 170.882812 C 270.53125 163.53125 274.660156 153.5625 274.660156 143.167969 C 274.660156 132.773438 270.53125 122.800781 263.179688 115.453125 C 255.828125 108.101562 245.859375 103.972656 235.464844 103.972656 L 136.609375 103.972656 C 126.214844 103.972656 116.246094 108.101562 108.894531 115.453125 C 101.546875 122.800781 97.414062 132.773438 97.414062 143.167969 Z M 97.414062 143.167969 " clip-rule="nonzero"/></clipPath><clipPath id="96676ee905"><path d="M 101 138 L 120 138 L 120 151 L 101 151 Z M 101 138 " clip-rule="nonzero"/></clipPath><clipPath id="d24ecfb747"><path d="M 97.414062 143.167969 C 97.414062 153.5625 101.546875 163.53125 108.894531 170.882812 C 116.246094 178.234375 126.214844 182.363281 136.609375 182.363281 L 235.464844 182.363281 C 245.859375 182.363281 255.828125 178.234375 263.179688 170.882812 C 270.53125 163.53125 274.660156 153.5625 274.660156 143.167969 C 274.660156 132.773438 270.53125 122.800781 263.179688 115.453125 C 255.828125 108.101562 245.859375 103.972656 235.464844 103.972656 L 136.609375 103.972656 C 126.214844 103.972656 116.246094 108.101562 108.894531 115.453125 C 101.546875 122.800781 97.414062 132.773438 97.414062 143.167969 Z M 97.414062 143.167969 " clip-rule="nonzero"/></clipPath><clipPath id="70aa624598"><path d="M 249 138 L 269 138 L 269 151 L 249 151 Z M 249 138 " clip-rule="nonzero"/></clipPath><clipPath id="17a2918959"><path d="M 97.414062 143.167969 C 97.414062 153.5625 101.546875 163.53125 108.894531 170.882812 C 116.246094 178.234375 126.214844 182.363281 136.609375 182.363281 L 235.464844 182.363281 C 245.859375 182.363281 255.828125 178.234375 263.179688 170.882812 C 270.53125 163.53125 274.660156 153.5625 274.660156 143.167969 C 274.660156 132.773438 270.53125 122.800781 263.179688 115.453125 C 255.828125 108.101562 245.859375 103.972656 235.464844 103.972656 L 136.609375 103.972656 C 126.214844 103.972656 116.246094 108.101562 108.894531 115.453125 C 101.546875 122.800781 97.414062 132.773438 97.414062 143.167969 Z M 97.414062 143.167969 " clip-rule="nonzero"/></clipPath><clipPath id="145a7db591"><path d="M 124 147 L 274.414062 147 L 274.414062 168 L 124 168 Z M 124 147 " clip-rule="nonzero"/></clipPath><clipPath id="765551f1b4"><path d="M 97.414062 143.167969 C 97.414062 153.5625 101.546875 163.53125 108.894531 170.882812 C 116.246094 178.234375 126.214844 182.363281 136.609375 182.363281 L 235.464844 182.363281 C 245.859375 182.363281 255.828125 178.234375 263.179688 170.882812 C 270.53125 163.53125 274.660156 153.5625 274.660156 143.167969 C 274.660156 132.773438 270.53125 122.800781 263.179688 115.453125 C 255.828125 108.101562 245.859375 103.972656 235.464844 103.972656 L 136.609375 103.972656 C 126.214844 103.972656 116.246094 108.101562 108.894531 115.453125 C 101.546875 122.800781 97.414062 132.773438 97.414062 143.167969 Z M 97.414062 143.167969 " clip-rule="nonzero"/></clipPath></defs><g fill="#212121" fill-opacity="1"><g transform="translate(41.52533, 210.106143)"><g><path d="M 2.078125 0 C 1.460938 0 1.15625 -0.222656 1.15625 -0.671875 C 1.15625 -1.035156 1.421875 -1.28125 1.953125 -1.40625 L 3.359375 -1.640625 C 4.210938 -1.804688 4.769531 -2.03125 5.03125 -2.3125 C 5.289062 -2.601562 5.421875 -3.175781 5.421875 -4.03125 L 5.421875 -39.890625 C 5.421875 -40.742188 5.289062 -41.3125 5.03125 -41.59375 C 4.769531 -41.882812 4.210938 -42.109375 3.359375 -42.265625 L 1.953125 -42.515625 C 1.421875 -42.640625 1.15625 -42.882812 1.15625 -43.25 C 1.15625 -43.695312 1.460938 -43.921875 2.078125 -43.921875 L 14.828125 -43.921875 C 17.222656 -43.921875 19.332031 -43.398438 21.15625 -42.359375 C 22.988281 -41.328125 24.414062 -39.894531 25.4375 -38.0625 C 26.457031 -36.226562 26.96875 -34.113281 26.96875 -31.71875 C 26.96875 -29.40625 26.457031 -27.351562 25.4375 -25.5625 C 24.414062 -23.769531 23.007812 -22.375 21.21875 -21.375 C 19.4375 -20.382812 17.363281 -19.890625 15 -19.890625 L 10.609375 -19.890625 C 10.046875 -19.890625 9.765625 -19.601562 9.765625 -19.03125 L 9.765625 -4.265625 C 9.765625 -3.410156 9.925781 -2.832031 10.25 -2.53125 C 10.570312 -2.226562 11.300781 -1.972656 12.4375 -1.765625 L 14.703125 -1.40625 C 15.148438 -1.320312 15.375 -1.097656 15.375 -0.734375 C 15.375 -0.242188 15.066406 0 14.453125 0 Z M 9.765625 -24.765625 C 9.765625 -22.523438 11.125 -21.40625 13.84375 -21.40625 C 16.488281 -21.40625 18.570312 -22.335938 20.09375 -24.203125 C 21.625 -26.078125 22.390625 -28.644531 22.390625 -31.90625 C 22.390625 -35.238281 21.613281 -37.816406 20.0625 -39.640625 C 18.519531 -41.472656 16.328125 -42.390625 13.484375 -42.390625 C 11.003906 -42.390625 9.765625 -41.578125 9.765625 -39.953125 Z M 9.765625 -24.765625 "/></g></g></g><g fill="#212121" fill-opacity="1"><g transform="translate(69.949523, 210.106143)"><g><path d="M 2.078125 0 C 1.460938 0 1.15625 -0.222656 1.15625 -0.671875 C 1.15625 -1.035156 1.421875 -1.28125 1.953125 -1.40625 L 3.359375 -1.640625 C 4.210938 -1.804688 4.769531 -2.03125 5.03125 -2.3125 C 5.289062 -2.601562 5.421875 -3.175781 5.421875 -4.03125 L 5.421875 -39.890625 C 5.421875 -40.742188 5.289062 -41.3125 5.03125 -41.59375 C 4.769531 -41.882812 4.210938 -42.109375 3.359375 -42.265625 L 1.953125 -42.515625 C 1.421875 -42.640625 1.15625 -42.882812 1.15625 -43.25 C 1.15625 -43.695312 1.460938 -43.921875 2.078125 -43.921875 L 13.109375 -43.921875 C 13.722656 -43.921875 14.03125 -43.695312 14.03125 -43.25 C 14.03125 -42.882812 13.765625 -42.640625 13.234375 -42.515625 L 11.828125 -42.265625 C 10.972656 -42.109375 10.414062 -41.882812 10.15625 -41.59375 C 9.894531 -41.3125 9.765625 -40.742188 9.765625 -39.890625 L 9.765625 -4.03125 C 9.765625 -3.175781 9.894531 -2.601562 10.15625 -2.3125 C 10.414062 -2.03125 10.972656 -1.804688 11.828125 -1.640625 L 13.234375 -1.40625 C 13.765625 -1.28125 14.03125 -1.035156 14.03125 -0.671875 C 14.03125 -0.222656 13.722656 0 13.109375 0 Z M 2.078125 0 "/></g></g></g><g fill="#212121" fill-opacity="1"><g transform="translate(85.137559, 210.106143)"><g><path d="M 2.078125 0 C 1.460938 0 1.15625 -0.222656 1.15625 -0.671875 C 1.15625 -1.035156 1.421875 -1.28125 1.953125 -1.40625 L 3.359375 -1.640625 C 4.210938 -1.804688 4.769531 -2.03125 5.03125 -2.3125 C 5.289062 -2.601562 5.421875 -3.175781 5.421875 -4.03125 L 5.421875 -39.890625 C 5.421875 -40.742188 5.289062 -41.3125 5.03125 -41.59375 C 4.769531 -41.882812 4.210938 -42.109375 3.359375 -42.265625 L 1.953125 -42.515625 C 1.421875 -42.640625 1.15625 -42.882812 1.15625 -43.25 C 1.15625 -43.695312 1.460938 -43.921875 2.078125 -43.921875 L 22.5625 -43.921875 C 23.5 -43.921875 24.007812 -43.453125 24.09375 -42.515625 L 24.578125 -32.390625 C 24.660156 -31.703125 24.398438 -31.359375 23.796875 -31.359375 C 23.304688 -31.359375 23.019531 -31.617188 22.9375 -32.140625 L 22.5625 -34.40625 C 22.125 -37.164062 21.210938 -39.1875 19.828125 -40.46875 C 18.441406 -41.75 16.53125 -42.390625 14.09375 -42.390625 C 12.46875 -42.390625 11.335938 -42.15625 10.703125 -41.6875 C 10.078125 -41.21875 9.765625 -40.394531 9.765625 -39.21875 L 9.765625 -24.515625 C 9.765625 -23.953125 10.046875 -23.671875 10.609375 -23.671875 L 13.65625 -23.671875 C 15.445312 -23.671875 16.546875 -24.625 16.953125 -26.53125 L 17.5625 -29.578125 C 17.726562 -30.191406 18.078125 -30.457031 18.609375 -30.375 C 19.054688 -30.289062 19.28125 -29.945312 19.28125 -29.34375 L 19.28125 -15.609375 C 19.28125 -15.003906 19.054688 -14.660156 18.609375 -14.578125 C 18.078125 -14.492188 17.726562 -14.757812 17.5625 -15.375 L 16.953125 -18.359375 C 16.671875 -19.785156 16.273438 -20.722656 15.765625 -21.171875 C 15.253906 -21.617188 14.535156 -21.84375 13.609375 -21.84375 L 10.609375 -21.84375 C 10.046875 -21.84375 9.765625 -21.554688 9.765625 -20.984375 L 9.765625 -5.671875 C 9.765625 -4.210938 10.140625 -3.15625 10.890625 -2.5 C 11.640625 -1.851562 13.007812 -1.53125 15 -1.53125 C 17.039062 -1.53125 18.78125 -2.046875 20.21875 -3.078125 C 21.664062 -4.117188 22.671875 -6.0625 23.234375 -8.90625 L 23.96875 -12.5 C 24.09375 -13.03125 24.398438 -13.296875 24.890625 -13.296875 C 25.453125 -13.296875 25.695312 -12.953125 25.625 -12.265625 L 25.015625 -1.40625 C 24.929688 -0.46875 24.421875 0 23.484375 0 Z M 19.828125 13.171875 C 18.691406 13.171875 17.65625 12.804688 16.71875 12.078125 C 15.78125 11.347656 15.3125 10.226562 15.3125 8.71875 C 15.3125 7.582031 15.644531 6.40625 16.3125 5.1875 C 16.988281 3.96875 17.894531 2.835938 19.03125 1.796875 C 20.175781 0.765625 21.457031 -0.0351562 22.875 -0.609375 L 23.484375 0 C 21.703125 1.019531 20.363281 2.238281 19.46875 3.65625 C 18.570312 5.082031 18.125 6.566406 18.125 8.109375 C 18.125 9.285156 18.347656 10.117188 18.796875 10.609375 C 19.242188 11.097656 19.8125 11.34375 20.5 11.34375 C 21.476562 11.34375 22.332031 10.914062 23.0625 10.0625 C 23.507812 9.5 23.914062 9.4375 24.28125 9.875 C 24.53125 10.25 24.429688 10.675781 23.984375 11.15625 C 23.410156 11.8125 22.796875 12.3125 22.140625 12.65625 C 21.492188 13 20.722656 13.171875 19.828125 13.171875 Z M 19.828125 13.171875 "/></g></g></g><g fill="#212121" fill-opacity="1"><g transform="translate(112.768803, 210.106143)"><g><path d="M 2.078125 0 C 1.460938 0 1.15625 -0.222656 1.15625 -0.671875 C 1.15625 -1.035156 1.421875 -1.28125 1.953125 -1.40625 L 3.359375 -1.640625 C 4.210938 -1.804688 4.769531 -2.03125 5.03125 -2.3125 C 5.289062 -2.601562 5.421875 -3.175781 5.421875 -4.03125 L 5.421875 -39.890625 C 5.421875 -40.742188 5.289062 -41.3125 5.03125 -41.59375 C 4.769531 -41.882812 4.210938 -42.109375 3.359375 -42.265625 L 1.953125 -42.515625 C 1.421875 -42.640625 1.15625 -42.882812 1.15625 -43.25 C 1.15625 -43.695312 1.460938 -43.921875 2.078125 -43.921875 L 13.234375 -43.921875 C 13.847656 -43.921875 14.15625 -43.675781 14.15625 -43.1875 C 14.15625 -42.820312 13.929688 -42.597656 13.484375 -42.515625 L 11.828125 -42.265625 C 10.972656 -42.148438 10.414062 -41.925781 10.15625 -41.59375 C 9.894531 -41.269531 9.765625 -40.679688 9.765625 -39.828125 L 9.765625 -23.359375 C 9.765625 -22.953125 9.882812 -22.707031 10.125 -22.625 C 10.363281 -22.550781 10.585938 -22.695312 10.796875 -23.0625 L 20.796875 -38.734375 C 22.140625 -40.804688 22.019531 -41.984375 20.4375 -42.265625 L 19.03125 -42.515625 C 18.5 -42.640625 18.234375 -42.90625 18.234375 -43.3125 C 18.234375 -43.71875 18.519531 -43.921875 19.09375 -43.921875 L 29.46875 -43.921875 C 30.03125 -43.921875 30.3125 -43.695312 30.3125 -43.25 C 30.3125 -42.800781 30.050781 -42.554688 29.53125 -42.515625 L 28.359375 -42.390625 C 27.097656 -42.273438 26.0625 -41.910156 25.25 -41.296875 C 24.4375 -40.679688 23.523438 -39.582031 22.515625 -38 L 15.609375 -27.203125 C 15.203125 -26.515625 15.1875 -25.84375 15.5625 -25.1875 L 27.015625 -3.59375 C 27.347656 -2.945312 27.6875 -2.476562 28.03125 -2.1875 C 28.375 -1.90625 28.789062 -1.722656 29.28125 -1.640625 L 30.75 -1.40625 C 31.226562 -1.363281 31.46875 -1.117188 31.46875 -0.671875 C 31.46875 -0.222656 31.1875 0 30.625 0 L 19.765625 0 C 19.191406 0 18.90625 -0.222656 18.90625 -0.671875 C 18.90625 -1.078125 19.171875 -1.320312 19.703125 -1.40625 L 20.734375 -1.53125 C 22.328125 -1.726562 22.65625 -2.722656 21.71875 -4.515625 L 12.9375 -21.234375 C 12.769531 -21.554688 12.582031 -21.726562 12.375 -21.75 C 12.175781 -21.769531 11.972656 -21.613281 11.765625 -21.28125 L 10.484375 -19.28125 C 10.203125 -18.875 10.007812 -18.484375 9.90625 -18.109375 C 9.8125 -17.742188 9.765625 -17.28125 9.765625 -16.71875 L 9.765625 -4.09375 C 9.765625 -3.238281 9.894531 -2.644531 10.15625 -2.3125 C 10.414062 -1.988281 10.972656 -1.765625 11.828125 -1.640625 L 13.484375 -1.40625 C 13.929688 -1.320312 14.15625 -1.097656 14.15625 -0.734375 C 14.15625 -0.242188 13.847656 0 13.234375 0 Z M 2.078125 0 "/></g></g></g><g fill="#212121" fill-opacity="1"><g transform="translate(143.022871, 210.106143)"><g><path d="M 26.171875 0.546875 C 25.515625 0.546875 24.960938 0.0546875 24.515625 -0.921875 L 7.984375 -36.78125 C 7.867188 -37.0625 7.71875 -37.179688 7.53125 -37.140625 C 7.351562 -37.109375 7.265625 -36.925781 7.265625 -36.59375 L 7.265625 -5.25 C 7.265625 -4.101562 7.457031 -3.234375 7.84375 -2.640625 C 8.226562 -2.054688 8.925781 -1.6875 9.9375 -1.53125 L 10.734375 -1.40625 C 11.265625 -1.363281 11.53125 -1.117188 11.53125 -0.671875 C 11.53125 -0.222656 11.222656 0 10.609375 0 L 1.890625 0 C 1.273438 0 0.96875 -0.222656 0.96875 -0.671875 C 0.96875 -1.117188 1.234375 -1.363281 1.765625 -1.40625 L 2.5625 -1.53125 C 3.613281 -1.6875 4.34375 -2.054688 4.75 -2.640625 C 5.164062 -3.234375 5.375 -4.101562 5.375 -5.25 L 5.375 -39.890625 C 5.375 -40.742188 5.238281 -41.3125 4.96875 -41.59375 C 4.707031 -41.882812 4.109375 -42.109375 3.171875 -42.265625 L 1.765625 -42.515625 C 1.234375 -42.640625 0.96875 -42.882812 0.96875 -43.25 C 0.96875 -43.695312 1.273438 -43.921875 1.890625 -43.921875 L 8.421875 -43.921875 C 9.429688 -43.921875 10.140625 -43.472656 10.546875 -42.578125 L 24.953125 -10.921875 C 25.066406 -10.671875 25.21875 -10.566406 25.40625 -10.609375 C 25.59375 -10.648438 25.6875 -10.796875 25.6875 -11.046875 L 25.6875 -38.671875 C 25.6875 -39.972656 25.460938 -40.878906 25.015625 -41.390625 C 24.566406 -41.898438 23.992188 -42.210938 23.296875 -42.328125 L 22.203125 -42.515625 C 21.671875 -42.640625 21.40625 -42.882812 21.40625 -43.25 C 21.40625 -43.695312 21.710938 -43.921875 22.328125 -43.921875 L 31.046875 -43.921875 C 31.660156 -43.921875 31.96875 -43.695312 31.96875 -43.25 C 31.96875 -42.800781 31.703125 -42.554688 31.171875 -42.515625 L 30.375 -42.390625 C 29.320312 -42.234375 28.59375 -41.898438 28.1875 -41.390625 C 27.78125 -40.878906 27.578125 -39.972656 27.578125 -38.671875 L 27.578125 -1.40625 C 27.578125 -0.675781 27.441406 -0.171875 27.171875 0.109375 C 26.910156 0.398438 26.578125 0.546875 26.171875 0.546875 Z M 26.171875 0.546875 "/></g></g></g><g fill="#212121" fill-opacity="1"><g transform="translate(175.960773, 210.106143)"><g><path d="M 2.078125 0 C 1.460938 0 1.15625 -0.222656 1.15625 -0.671875 C 1.15625 -1.035156 1.421875 -1.28125 1.953125 -1.40625 L 3.359375 -1.640625 C 4.210938 -1.804688 4.769531 -2.03125 5.03125 -2.3125 C 5.289062 -2.601562 5.421875 -3.175781 5.421875 -4.03125 L 5.421875 -39.890625 C 5.421875 -40.742188 5.289062 -41.3125 5.03125 -41.59375 C 4.769531 -41.882812 4.210938 -42.109375 3.359375 -42.265625 L 1.953125 -42.515625 C 1.421875 -42.640625 1.15625 -42.882812 1.15625 -43.25 C 1.15625 -43.695312 1.460938 -43.921875 2.078125 -43.921875 L 22.5625 -43.921875 C 23.5 -43.921875 24.007812 -43.453125 24.09375 -42.515625 L 24.578125 -32.390625 C 24.660156 -31.703125 24.398438 -31.359375 23.796875 -31.359375 C 23.304688 -31.359375 23.019531 -31.617188 22.9375 -32.140625 L 22.5625 -34.40625 C 22.125 -37.164062 21.210938 -39.1875 19.828125 -40.46875 C 18.441406 -41.75 16.53125 -42.390625 14.09375 -42.390625 C 12.46875 -42.390625 11.335938 -42.15625 10.703125 -41.6875 C 10.078125 -41.21875 9.765625 -40.394531 9.765625 -39.21875 L 9.765625 -24.515625 C 9.765625 -23.953125 10.046875 -23.671875 10.609375 -23.671875 L 13.65625 -23.671875 C 15.445312 -23.671875 16.546875 -24.625 16.953125 -26.53125 L 17.5625 -29.578125 C 17.726562 -30.191406 18.078125 -30.457031 18.609375 -30.375 C 19.054688 -30.289062 19.28125 -29.945312 19.28125 -29.34375 L 19.28125 -15.609375 C 19.28125 -15.003906 19.054688 -14.660156 18.609375 -14.578125 C 18.078125 -14.492188 17.726562 -14.757812 17.5625 -15.375 L 16.953125 -18.359375 C 16.671875 -19.785156 16.273438 -20.722656 15.765625 -21.171875 C 15.253906 -21.617188 14.535156 -21.84375 13.609375 -21.84375 L 10.609375 -21.84375 C 10.046875 -21.84375 9.765625 -21.554688 9.765625 -20.984375 L 9.765625 -5.671875 C 9.765625 -4.210938 10.140625 -3.15625 10.890625 -2.5 C 11.640625 -1.851562 13.007812 -1.53125 15 -1.53125 C 17.039062 -1.53125 18.78125 -2.046875 20.21875 -3.078125 C 21.664062 -4.117188 22.671875 -6.0625 23.234375 -8.90625 L 23.96875 -12.5 C 24.09375 -13.03125 24.398438 -13.296875 24.890625 -13.296875 C 25.453125 -13.296875 25.695312 -12.953125 25.625 -12.265625 L 25.015625 -1.40625 C 24.929688 -0.46875 24.421875 0 23.484375 0 Z M 2.078125 0 "/></g></g></g><g fill="#212121" fill-opacity="1"><g transform="translate(203.592016, 210.106143)"><g/></g></g><g fill="#212121" fill-opacity="1"><g transform="translate(213.961358, 210.106143)"><g><path d="M -0.1875 0 C -0.789062 0 -1.09375 -0.203125 -1.09375 -0.609375 C -1.09375 -1.015625 -0.8125 -1.28125 -0.25 -1.40625 L 0.671875 -1.59375 C 1.484375 -1.75 2.09375 -2.140625 2.5 -2.765625 C 2.90625 -3.398438 3.25 -4.285156 3.53125 -5.421875 L 13 -43.546875 C 13.070312 -43.960938 13.195312 -44.226562 13.375 -44.34375 C 13.5625 -44.46875 13.738281 -44.53125 13.90625 -44.53125 C 14.113281 -44.53125 14.304688 -44.46875 14.484375 -44.34375 C 14.671875 -44.226562 14.804688 -43.960938 14.890625 -43.546875 L 24.515625 -4.875 C 24.804688 -3.738281 25.132812 -2.945312 25.5 -2.5 C 25.863281 -2.050781 26.429688 -1.75 27.203125 -1.59375 L 28.125 -1.40625 C 28.6875 -1.28125 28.96875 -1.015625 28.96875 -0.609375 C 28.96875 -0.203125 28.664062 0 28.0625 0 L 17.625 0 C 17.0625 0 16.78125 -0.222656 16.78125 -0.671875 C 16.78125 -1.117188 17.125 -1.363281 17.8125 -1.40625 L 18.96875 -1.53125 C 19.664062 -1.601562 20.101562 -1.820312 20.28125 -2.1875 C 20.46875 -2.5625 20.457031 -3.195312 20.25 -4.09375 L 17.9375 -13.546875 C 17.6875 -14.597656 17.015625 -15.125 15.921875 -15.125 L 9.515625 -15.125 C 8.460938 -15.125 7.789062 -14.597656 7.5 -13.546875 L 5.421875 -5.375 C 4.816406 -3.050781 5.429688 -1.769531 7.265625 -1.53125 L 8.171875 -1.40625 C 8.867188 -1.28125 9.21875 -1.035156 9.21875 -0.671875 C 9.21875 -0.222656 8.929688 0 8.359375 0 Z M 9.328125 -16.953125 L 16.046875 -16.953125 C 16.691406 -16.953125 16.957031 -17.300781 16.84375 -18 L 12.9375 -34.34375 L 12.625 -34.34375 L 8.546875 -18 C 8.421875 -17.300781 8.679688 -16.953125 9.328125 -16.953125 Z M 9.328125 -16.953125 "/></g></g></g><g fill="#212121" fill-opacity="1"><g transform="translate(241.836566, 210.106143)"><g><path d="M 16.78125 0.546875 C 14.582031 0.546875 12.640625 0.03125 10.953125 -1 C 9.265625 -2.039062 7.953125 -3.484375 7.015625 -5.328125 C 6.078125 -7.179688 5.609375 -9.3125 5.609375 -11.71875 L 5.609375 -39.890625 C 5.609375 -40.742188 5.472656 -41.3125 5.203125 -41.59375 C 4.941406 -41.882812 4.382812 -42.109375 3.53125 -42.265625 L 2.140625 -42.515625 C 1.609375 -42.640625 1.34375 -42.882812 1.34375 -43.25 C 1.34375 -43.695312 1.644531 -43.921875 2.25 -43.921875 L 13.421875 -43.921875 C 14.023438 -43.921875 14.328125 -43.675781 14.328125 -43.1875 C 14.328125 -42.820312 14.101562 -42.597656 13.65625 -42.515625 L 12.015625 -42.265625 C 11.203125 -42.148438 10.648438 -41.925781 10.359375 -41.59375 C 10.078125 -41.269531 9.9375 -40.679688 9.9375 -39.828125 L 9.9375 -11.65625 C 9.9375 -8.5625 10.628906 -6.160156 12.015625 -4.453125 C 13.398438 -2.742188 15.332031 -1.890625 17.8125 -1.890625 C 20.332031 -1.890625 22.28125 -2.742188 23.65625 -4.453125 C 25.039062 -6.160156 25.734375 -8.5625 25.734375 -11.65625 L 25.734375 -38.609375 C 25.734375 -40.804688 25.046875 -42.023438 23.671875 -42.265625 L 22.015625 -42.515625 C 21.566406 -42.597656 21.34375 -42.820312 21.34375 -43.1875 C 21.34375 -43.675781 21.648438 -43.921875 22.265625 -43.921875 L 31.046875 -43.921875 C 31.660156 -43.921875 31.96875 -43.695312 31.96875 -43.25 C 31.96875 -42.882812 31.703125 -42.640625 31.171875 -42.515625 L 29.765625 -42.265625 C 28.378906 -42.023438 27.6875 -40.828125 27.6875 -38.671875 L 27.6875 -11.71875 C 27.6875 -8.007812 26.691406 -5.035156 24.703125 -2.796875 C 22.710938 -0.566406 20.070312 0.546875 16.78125 0.546875 Z M 16.78125 0.546875 "/></g></g></g><g fill="#212121" fill-opacity="1"><g transform="translate(274.530503, 210.106143)"><g><path d="M 7.203125 0 C 6.585938 0 6.28125 -0.222656 6.28125 -0.671875 C 6.28125 -1.117188 6.546875 -1.363281 7.078125 -1.40625 L 9.828125 -1.828125 C 10.640625 -1.953125 11.1875 -2.164062 11.46875 -2.46875 C 11.75 -2.769531 11.890625 -3.347656 11.890625 -4.203125 L 11.890625 -40.8125 C 11.890625 -41.375 11.765625 -41.773438 11.515625 -42.015625 C 11.273438 -42.265625 10.769531 -42.390625 10 -42.390625 C 8.5 -42.390625 7.015625 -41.738281 5.546875 -40.4375 C 4.085938 -39.132812 3.132812 -37.039062 2.6875 -34.15625 L 2.375 -32.140625 C 2.289062 -31.617188 2.007812 -31.359375 1.53125 -31.359375 C 0.914062 -31.359375 0.648438 -31.703125 0.734375 -32.390625 L 1.28125 -43.4375 C 1.363281 -44.363281 1.726562 -44.828125 2.375 -44.828125 C 2.664062 -44.828125 2.929688 -44.753906 3.171875 -44.609375 C 3.410156 -44.472656 3.828125 -44.320312 4.421875 -44.15625 C 5.015625 -44 5.960938 -43.921875 7.265625 -43.921875 L 20.859375 -43.921875 C 22.160156 -43.921875 23.101562 -44 23.6875 -44.15625 C 24.28125 -44.320312 24.707031 -44.472656 24.96875 -44.609375 C 25.238281 -44.753906 25.492188 -44.828125 25.734375 -44.828125 C 26.390625 -44.828125 26.757812 -44.363281 26.84375 -43.4375 L 27.390625 -32.390625 C 27.472656 -31.703125 27.207031 -31.359375 26.59375 -31.359375 C 26.101562 -31.359375 25.816406 -31.617188 25.734375 -32.140625 L 25.4375 -34.15625 C 25.03125 -37.039062 24.09375 -39.132812 22.625 -40.4375 C 21.164062 -41.738281 19.660156 -42.390625 18.109375 -42.390625 C 17.335938 -42.390625 16.828125 -42.265625 16.578125 -42.015625 C 16.335938 -41.773438 16.21875 -41.375 16.21875 -40.8125 L 16.21875 -4.203125 C 16.21875 -3.347656 16.367188 -2.769531 16.671875 -2.46875 C 16.984375 -2.164062 17.523438 -1.953125 18.296875 -1.828125 L 21.046875 -1.40625 C 21.578125 -1.363281 21.84375 -1.117188 21.84375 -0.671875 C 21.84375 -0.222656 21.535156 0 20.921875 0 Z M 7.203125 0 "/></g></g></g><g fill="#212121" fill-opacity="1"><g transform="translate(302.649688, 210.106143)"><g><path d="M -0.1875 0 C -0.789062 0 -1.09375 -0.203125 -1.09375 -0.609375 C -1.09375 -1.015625 -0.8125 -1.28125 -0.25 -1.40625 L 0.671875 -1.59375 C 1.484375 -1.75 2.09375 -2.140625 2.5 -2.765625 C 2.90625 -3.398438 3.25 -4.285156 3.53125 -5.421875 L 13 -43.546875 C 13.070312 -43.960938 13.195312 -44.226562 13.375 -44.34375 C 13.5625 -44.46875 13.738281 -44.53125 13.90625 -44.53125 C 14.113281 -44.53125 14.304688 -44.46875 14.484375 -44.34375 C 14.671875 -44.226562 14.804688 -43.960938 14.890625 -43.546875 L 24.515625 -4.875 C 24.804688 -3.738281 25.132812 -2.945312 25.5 -2.5 C 25.863281 -2.050781 26.429688 -1.75 27.203125 -1.59375 L 28.125 -1.40625 C 28.6875 -1.28125 28.96875 -1.015625 28.96875 -0.609375 C 28.96875 -0.203125 28.664062 0 28.0625 0 L 17.625 0 C 17.0625 0 16.78125 -0.222656 16.78125 -0.671875 C 16.78125 -1.117188 17.125 -1.363281 17.8125 -1.40625 L 18.96875 -1.53125 C 19.664062 -1.601562 20.101562 -1.820312 20.28125 -2.1875 C 20.46875 -2.5625 20.457031 -3.195312 20.25 -4.09375 L 17.9375 -13.546875 C 17.6875 -14.597656 17.015625 -15.125 15.921875 -15.125 L 9.515625 -15.125 C 8.460938 -15.125 7.789062 -14.597656 7.5 -13.546875 L 5.421875 -5.375 C 4.816406 -3.050781 5.429688 -1.769531 7.265625 -1.53125 L 8.171875 -1.40625 C 8.867188 -1.28125 9.21875 -1.035156 9.21875 -0.671875 C 9.21875 -0.222656 8.929688 0 8.359375 0 Z M 9.328125 -16.953125 L 16.046875 -16.953125 C 16.691406 -16.953125 16.957031 -17.300781 16.84375 -18 L 12.9375 -34.34375 L 12.625 -34.34375 L 8.546875 -18 C 8.421875 -17.300781 8.679688 -16.953125 9.328125 -16.953125 Z M 9.328125 -16.953125 "/></g></g></g><g clip-path="url(#2ff09538cc)"><g clip-path="url(#0f116c58c3)"><path fill="#212121" d="M 188.816406 116.097656 C 162.300781 115.976562 139.492188 120.183594 136.203125 120.601562 C 130.941406 121.265625 129.210938 124.886719 129.210938 124.886719 L 119.015625 147.238281 C 120.820312 147.023438 123.140625 146.738281 125.898438 146.40625 C 126.515625 103.984375 233.546875 120.371094 237.132812 122.757812 C 221.96875 117.808594 204.722656 116.171875 188.816406 116.097656 Z M 188.816406 116.097656 " fill-opacity="1" fill-rule="nonzero"/></g></g><g clip-path="url(#565bc13c2a)"><g clip-path="url(#70ed52780a)"><path fill="#212121" d="M 165.035156 122.007812 C 165.035156 122.007812 192.808594 117.242188 236.75 125.117188 C 236.335938 124.703125 245.246094 132.164062 250.015625 147.5 C 249.808594 147.292969 131.667969 137.136719 97.46875 163.875 C 98.089844 163.046875 112.183594 148.328125 154.464844 144.597656 C 196.746094 140.867188 247.113281 150.609375 241.101562 136.308594 C 235.089844 122.007812 202.34375 122.007812 165.035156 122.007812 Z M 165.035156 122.007812 " fill-opacity="1" fill-rule="nonzero"/></g></g><g clip-path="url(#96676ee905)"><g clip-path="url(#d24ecfb747)"><path fill="#212121" d="M 119.644531 147.035156 L 116.070312 150.351562 C 116.070312 150.351562 113.6875 147.292969 105.550781 147.605469 C 97.417969 147.914062 101.871094 138.898438 106.691406 138.796875 C 111.511719 138.691406 116.175781 137.863281 115.8125 140.351562 C 115.449219 142.835938 115.398438 146.101562 114.671875 146.414062 C 113.945312 146.722656 114.722656 139.3125 108.710938 140.453125 C 102.703125 141.59375 103.894531 144.027344 105.398438 144.597656 C 106.898438 145.167969 109.074219 143.71875 110.890625 145.84375 C 112.703125 147.96875 118.039062 149.105469 119.644531 147.035156 Z M 119.644531 147.035156 " fill-opacity="1" fill-rule="nonzero"/></g></g><g clip-path="url(#70aa624598)"><g clip-path="url(#17a2918959)"><path fill="#212121" d="M 249.644531 147.398438 L 253.21875 150.714844 C 253.21875 150.714844 255.601562 147.65625 263.738281 147.96875 C 271.875 148.28125 267.417969 139.265625 262.597656 139.160156 C 257.777344 139.054688 253.113281 138.226562 253.476562 140.714844 C 253.839844 143.203125 253.894531 146.464844 254.617188 146.777344 C 255.34375 147.089844 254.566406 139.679688 260.578125 140.820312 C 266.589844 141.957031 265.394531 144.394531 263.894531 144.964844 C 262.390625 145.535156 260.214844 144.082031 258.402344 146.207031 C 256.585938 148.332031 251.25 149.472656 249.644531 147.398438 Z M 249.644531 147.398438 " fill-opacity="1" fill-rule="nonzero"/></g></g><g clip-path="url(#145a7db591)"><g clip-path="url(#765551f1b4)"><path fill="#212121" d="M 191.3125 147.914062 C 171.179688 147.984375 149.15625 150.191406 124.855469 157.554688 L 124.894531 157.546875 C 162.269531 148.59375 205.460938 148.78125 236.472656 151.023438 C 236.367188 151.027344 236.320312 151.027344 236.214844 151.03125 C 232.058594 151.246094 229.539062 151.859375 224.011719 152.351562 C 218.480469 152.84375 212.921875 153.476562 208.644531 154.246094 C 206.503906 154.632812 204.6875 155.050781 203.34375 155.511719 C 202.667969 155.742188 202.113281 155.980469 201.6875 156.242188 C 201.265625 156.503906 200.953125 156.78125 200.824219 157.148438 C 200.691406 157.523438 200.859375 157.925781 201.171875 158.21875 C 240.484375 182.355469 267.289062 136.578125 273.757812 167.628906 C 274.058594 167.605469 274.359375 167.585938 274.648438 167.582031 C 273.328125 158.261719 268.527344 155.96875 266.648438 152.832031 C 266.0625 151.855469 265.285156 151.398438 264.488281 151.324219 C 263.691406 151.253906 262.90625 151.539062 262.207031 151.921875 C 257.0625 155.777344 250.800781 158.191406 244.804688 159.324219 C 238.570312 160.449219 231.511719 160.90625 224.921875 160.898438 C 193.21875 155.1875 230.535156 152.648438 246.441406 151.109375 C 229.691406 149.917969 211.445312 147.847656 191.3125 147.914062 Z M 191.3125 147.914062 " fill-opacity="1" fill-rule="nonzero"/></g></g><g fill="#212121" fill-opacity="1"><g transform="translate(149.607138, 235.280697)"><g><path d="M 1.140625 0.140625 C 0.785156 0.140625 0.609375 0.0234375 0.609375 -0.203125 C 0.609375 -0.390625 0.722656 -0.484375 0.953125 -0.484375 L 1.421875 -0.4375 C 1.773438 -0.4375 2.015625 -0.585938 2.140625 -0.890625 C 2.273438 -1.234375 2.34375 -1.925781 2.34375 -2.96875 L 2.34375 -9.6875 C 2.34375 -10.726562 2.296875 -11.378906 2.203125 -11.640625 C 2.109375 -11.910156 2 -12.082031 1.875 -12.15625 C 1.757812 -12.226562 1.609375 -12.265625 1.421875 -12.265625 L 0.953125 -12.21875 C 0.722656 -12.21875 0.609375 -12.3125 0.609375 -12.5 C 0.609375 -12.726562 0.773438 -12.84375 1.109375 -12.84375 C 1.453125 -12.84375 1.734375 -12.832031 1.953125 -12.8125 C 2.171875 -12.800781 2.390625 -12.785156 2.609375 -12.765625 C 3.203125 -12.722656 3.664062 -12.703125 4 -12.703125 C 4.34375 -12.703125 4.703125 -12.707031 5.078125 -12.71875 C 5.453125 -12.738281 5.875 -12.753906 6.34375 -12.765625 C 7.582031 -12.816406 8.4375 -12.84375 8.90625 -12.84375 C 9.382812 -12.84375 9.648438 -12.8125 9.703125 -12.75 C 9.753906 -12.695312 9.78125 -12.625 9.78125 -12.53125 C 9.78125 -12.4375 9.78125 -12.34375 9.78125 -12.25 C 9.78125 -12.164062 9.773438 -12.066406 9.765625 -11.953125 C 9.765625 -11.804688 9.75 -11.585938 9.71875 -11.296875 C 9.6875 -11.015625 9.644531 -10.820312 9.59375 -10.71875 C 9.550781 -10.625 9.488281 -10.578125 9.40625 -10.578125 C 9.320312 -10.578125 9.265625 -10.597656 9.234375 -10.640625 C 9.203125 -10.679688 9.160156 -10.773438 9.109375 -10.921875 C 9.054688 -11.078125 8.960938 -11.222656 8.828125 -11.359375 C 8.691406 -11.492188 8.476562 -11.601562 8.1875 -11.6875 C 7.613281 -11.863281 6.5625 -11.953125 5.03125 -11.953125 L 4.1875 -11.953125 C 4.03125 -11.953125 3.929688 -11.925781 3.890625 -11.875 C 3.859375 -11.832031 3.84375 -11.734375 3.84375 -11.578125 L 3.84375 -7.59375 C 4.59375 -7.5 5.210938 -7.453125 5.703125 -7.453125 C 6.203125 -7.453125 6.554688 -7.453125 6.765625 -7.453125 C 6.984375 -7.460938 7.160156 -7.488281 7.296875 -7.53125 C 7.546875 -7.570312 7.722656 -7.679688 7.828125 -7.859375 C 8.046875 -8.191406 8.21875 -8.359375 8.34375 -8.359375 C 8.519531 -8.359375 8.609375 -8.269531 8.609375 -8.09375 L 8.265625 -6.75 L 8.3125 -6.03125 C 8.3125 -5.570312 8.203125 -5.34375 7.984375 -5.34375 C 7.804688 -5.34375 7.71875 -5.460938 7.71875 -5.703125 C 7.71875 -5.953125 7.703125 -6.132812 7.671875 -6.25 C 7.640625 -6.375 7.554688 -6.46875 7.421875 -6.53125 C 7.222656 -6.632812 6.734375 -6.6875 5.953125 -6.6875 C 5.171875 -6.6875 4.46875 -6.648438 3.84375 -6.578125 L 3.84375 -4.34375 C 3.84375 -2.945312 3.875 -1.789062 3.9375 -0.875 C 4.445312 -0.757812 5 -0.703125 5.59375 -0.703125 C 6.195312 -0.703125 6.710938 -0.71875 7.140625 -0.75 C 7.566406 -0.789062 7.9375 -0.859375 8.25 -0.953125 C 8.851562 -1.128906 9.300781 -1.476562 9.59375 -2 C 9.71875 -2.226562 9.84375 -2.34375 9.96875 -2.34375 C 10.101562 -2.34375 10.171875 -2.25 10.171875 -2.0625 C 10.171875 -1.988281 10.144531 -1.890625 10.09375 -1.765625 C 10.050781 -1.609375 9.976562 -1.363281 9.875 -1.03125 C 9.78125 -0.707031 9.707031 -0.472656 9.65625 -0.328125 C 9.613281 -0.179688 9.5625 -0.0703125 9.5 0 C 9.40625 0.125 9.21875 0.1875 8.9375 0.1875 C 8.65625 0.1875 8.382812 0.1875 8.125 0.1875 C 7.863281 0.1875 7.59375 0.179688 7.3125 0.171875 C 6.988281 0.160156 6.484375 0.132812 5.796875 0.09375 C 4.078125 0.0078125 3.066406 -0.0195312 2.765625 0 C 2.472656 0.03125 2.25 0.0507812 2.09375 0.0625 C 1.9375 0.0820312 1.785156 0.0976562 1.640625 0.109375 C 1.503906 0.128906 1.335938 0.140625 1.140625 0.140625 Z M 1.140625 0.140625 "/></g></g></g><g fill="#212121" fill-opacity="1"><g transform="translate(160.532628, 235.280697)"><g><path d="M 7.359375 -12.5625 L 7.765625 -12.609375 C 7.941406 -12.609375 8.035156 -12.460938 8.046875 -12.171875 C 8.066406 -11.890625 8.09375 -11.65625 8.125 -11.46875 C 8.15625 -11.289062 8.1875 -11.128906 8.21875 -10.984375 C 8.25 -10.835938 8.273438 -10.710938 8.296875 -10.609375 C 8.328125 -10.515625 8.34375 -10.429688 8.34375 -10.359375 C 8.34375 -10.296875 8.304688 -10.234375 8.234375 -10.171875 C 8.160156 -10.109375 8.082031 -10.078125 8 -10.078125 C 7.851562 -10.078125 7.710938 -10.234375 7.578125 -10.546875 C 7.304688 -11.128906 7.082031 -11.507812 6.90625 -11.6875 C 6.5 -12.050781 5.894531 -12.234375 5.09375 -12.234375 C 3.988281 -12.234375 3.242188 -11.898438 2.859375 -11.234375 C 2.742188 -11.023438 2.6875 -10.765625 2.6875 -10.453125 C 2.6875 -10.140625 2.757812 -9.847656 2.90625 -9.578125 C 3.050781 -9.304688 3.273438 -9.03125 3.578125 -8.75 C 3.890625 -8.476562 4.28125 -8.1875 4.75 -7.875 C 5.226562 -7.5625 5.738281 -7.21875 6.28125 -6.84375 C 6.820312 -6.46875 7.242188 -6.128906 7.546875 -5.828125 C 7.847656 -5.523438 8.097656 -5.226562 8.296875 -4.9375 C 8.648438 -4.375 8.828125 -3.828125 8.828125 -3.296875 C 8.828125 -2.765625 8.75 -2.289062 8.59375 -1.875 C 8.445312 -1.46875 8.203125 -1.109375 7.859375 -0.796875 C 7.117188 -0.109375 6.03125 0.234375 4.59375 0.234375 C 3.851562 0.234375 3.039062 0.0703125 2.15625 -0.25 C 1.957031 -0.3125 1.832031 -0.390625 1.78125 -0.484375 C 1.726562 -0.585938 1.675781 -0.785156 1.625 -1.078125 C 1.582031 -1.378906 1.53125 -1.648438 1.46875 -1.890625 C 1.414062 -2.128906 1.363281 -2.347656 1.3125 -2.546875 L 1.171875 -3.03125 C 1.140625 -3.175781 1.125 -3.296875 1.125 -3.390625 C 1.125 -3.617188 1.207031 -3.734375 1.375 -3.734375 C 1.601562 -3.734375 1.765625 -3.5625 1.859375 -3.21875 C 2.035156 -2.59375 2.195312 -2.191406 2.34375 -2.015625 C 2.875 -1.304688 3.492188 -0.84375 4.203125 -0.625 C 4.410156 -0.5625 4.691406 -0.53125 5.046875 -0.53125 C 5.398438 -0.53125 5.742188 -0.582031 6.078125 -0.6875 C 6.410156 -0.789062 6.691406 -0.929688 6.921875 -1.109375 C 7.335938 -1.453125 7.546875 -1.867188 7.546875 -2.359375 C 7.546875 -2.847656 7.390625 -3.289062 7.078125 -3.6875 C 6.765625 -4.082031 6.382812 -4.425781 5.9375 -4.71875 C 5.5 -5.007812 5.171875 -5.222656 4.953125 -5.359375 C 4.742188 -5.503906 4.539062 -5.640625 4.34375 -5.765625 C 2.75 -6.828125 1.804688 -7.882812 1.515625 -8.9375 C 1.441406 -9.21875 1.40625 -9.535156 1.40625 -9.890625 C 1.40625 -10.253906 1.492188 -10.625 1.671875 -11 C 1.847656 -11.382812 2.097656 -11.71875 2.421875 -12 C 3.148438 -12.625 4.085938 -12.9375 5.234375 -12.9375 C 5.765625 -12.9375 6.1875 -12.878906 6.5 -12.765625 C 6.9375 -12.628906 7.222656 -12.5625 7.359375 -12.5625 Z M 7.359375 -12.5625 "/></g></g></g><g fill="#212121" fill-opacity="1"><g transform="translate(170.188374, 235.280697)"><g><path d="M 3.890625 0.140625 C 3.472656 0.140625 3.265625 0.0234375 3.265625 -0.203125 C 3.265625 -0.390625 3.378906 -0.484375 3.609375 -0.484375 L 4.078125 -0.4375 C 4.453125 -0.4375 4.703125 -0.648438 4.828125 -1.078125 C 4.941406 -1.429688 5 -2.070312 5 -3 L 5 -11.859375 L 4.75 -11.859375 C 3.644531 -11.859375 2.765625 -11.742188 2.109375 -11.515625 C 1.648438 -11.359375 1.335938 -11.078125 1.171875 -10.671875 C 1.054688 -10.390625 0.929688 -10.25 0.796875 -10.25 C 0.609375 -10.25 0.515625 -10.351562 0.515625 -10.5625 C 0.515625 -10.625 0.53125 -10.695312 0.5625 -10.78125 C 0.59375 -10.863281 0.625 -10.960938 0.65625 -11.078125 C 0.757812 -11.378906 0.820312 -11.691406 0.84375 -12.015625 C 0.863281 -12.347656 0.898438 -12.566406 0.953125 -12.671875 C 1.003906 -12.785156 1.078125 -12.84375 1.171875 -12.84375 C 1.265625 -12.84375 1.347656 -12.832031 1.421875 -12.8125 C 1.503906 -12.800781 1.617188 -12.785156 1.765625 -12.765625 C 2.140625 -12.722656 2.613281 -12.703125 3.1875 -12.703125 L 9.203125 -12.703125 C 9.671875 -12.703125 10.007812 -12.722656 10.21875 -12.765625 C 10.425781 -12.816406 10.578125 -12.84375 10.671875 -12.84375 C 10.878906 -12.84375 10.984375 -12.75 10.984375 -12.5625 C 10.984375 -12.457031 10.96875 -12.332031 10.9375 -12.1875 C 10.84375 -11.882812 10.78125 -11.617188 10.75 -11.390625 C 10.71875 -11.171875 10.6875 -10.988281 10.65625 -10.84375 C 10.632812 -10.695312 10.609375 -10.585938 10.578125 -10.515625 C 10.535156 -10.367188 10.460938 -10.296875 10.359375 -10.296875 C 10.253906 -10.296875 10.1875 -10.332031 10.15625 -10.40625 C 10.132812 -10.476562 10.109375 -10.617188 10.078125 -10.828125 C 10.046875 -11.035156 9.988281 -11.207031 9.90625 -11.34375 C 9.832031 -11.476562 9.734375 -11.582031 9.609375 -11.65625 C 9.390625 -11.789062 9.03125 -11.859375 8.53125 -11.859375 L 6.484375 -11.859375 L 6.484375 -3 C 6.484375 -2.050781 6.523438 -1.4375 6.609375 -1.15625 C 6.703125 -0.882812 6.804688 -0.695312 6.921875 -0.59375 C 7.046875 -0.488281 7.210938 -0.4375 7.421875 -0.4375 L 7.875 -0.484375 C 8.101562 -0.484375 8.21875 -0.390625 8.21875 -0.203125 C 8.21875 0.0234375 8.015625 0.140625 7.609375 0.140625 C 7.398438 0.140625 7.179688 0.117188 6.953125 0.078125 C 6.191406 -0.0351562 5.539062 -0.0546875 5 0.015625 C 4.457031 0.0976562 4.085938 0.140625 3.890625 0.140625 Z M 3.890625 0.140625 "/></g></g></g><g fill="#212121" fill-opacity="1"><g transform="translate(181.701359, 235.280697)"><g/></g></g><g fill="#212121" fill-opacity="1"><g transform="translate(186.676105, 235.280697)"><g><path d="M 1.671875 0.140625 C 1.253906 0.140625 1.046875 0.0234375 1.046875 -0.203125 C 1.046875 -0.390625 1.160156 -0.484375 1.390625 -0.484375 L 1.859375 -0.4375 C 2.234375 -0.4375 2.484375 -0.648438 2.609375 -1.078125 C 2.722656 -1.429688 2.78125 -2.070312 2.78125 -3 L 2.75 -9.421875 C 2.75 -10.179688 2.519531 -10.597656 2.0625 -10.671875 C 1.914062 -10.691406 1.722656 -10.703125 1.484375 -10.703125 C 1.242188 -10.703125 1.125 -10.785156 1.125 -10.953125 C 1.125 -11.023438 1.144531 -11.082031 1.1875 -11.125 C 1.226562 -11.175781 1.421875 -11.273438 1.765625 -11.421875 C 2.703125 -11.828125 3.378906 -12.234375 3.796875 -12.640625 C 3.984375 -12.835938 4.140625 -12.9375 4.265625 -12.9375 C 4.390625 -12.9375 4.453125 -12.847656 4.453125 -12.671875 C 4.453125 -12.597656 4.425781 -12.460938 4.375 -12.265625 C 4.320312 -12.078125 4.285156 -11.914062 4.265625 -11.78125 C 4.253906 -11.65625 4.25 -11.492188 4.25 -11.296875 C 4.226562 -10.960938 4.21875 -10.335938 4.21875 -9.421875 L 4.25 -3 C 4.25 -2.082031 4.289062 -1.476562 4.375 -1.1875 C 4.457031 -0.894531 4.554688 -0.695312 4.671875 -0.59375 C 4.796875 -0.488281 4.960938 -0.4375 5.171875 -0.4375 L 5.625 -0.484375 C 5.851562 -0.484375 5.96875 -0.390625 5.96875 -0.203125 C 5.96875 0.0234375 5.765625 0.140625 5.359375 0.140625 C 5.148438 0.140625 4.929688 0.117188 4.703125 0.078125 C 4.335938 0.0234375 3.953125 0 3.546875 0 C 3.148438 0 2.785156 0.0195312 2.453125 0.0625 C 2.128906 0.113281 1.867188 0.140625 1.671875 0.140625 Z M 1.671875 0.140625 "/></g></g></g><g fill="#212121" fill-opacity="1"><g transform="translate(193.37543, 235.280697)"><g><path d="M 7.859375 -7.875 C 8.078125 -7.875 8.1875 -7.644531 8.1875 -7.1875 C 8.1875 -6.726562 8.097656 -6.289062 7.921875 -5.875 C 7.742188 -5.46875 7.507812 -5.113281 7.21875 -4.8125 C 6.570312 -4.144531 5.816406 -3.8125 4.953125 -3.8125 C 3.796875 -3.8125 2.800781 -4.226562 1.96875 -5.0625 C 1.125 -5.914062 0.703125 -6.953125 0.703125 -8.171875 C 0.703125 -9.390625 1.148438 -10.472656 2.046875 -11.421875 C 2.972656 -12.429688 4.117188 -12.9375 5.484375 -12.9375 C 6.984375 -12.9375 8.210938 -12.332031 9.171875 -11.125 C 10.085938 -9.945312 10.546875 -8.484375 10.546875 -6.734375 C 10.546875 -4.910156 9.96875 -3.296875 8.8125 -1.890625 C 8.09375 -1.003906 7.226562 -0.382812 6.21875 -0.03125 C 5.71875 0.144531 5.25 0.234375 4.8125 0.234375 C 4.375 0.234375 4 0.195312 3.6875 0.125 C 3.382812 0.0625 3.113281 -0.0195312 2.875 -0.125 C 2.363281 -0.375 2.109375 -0.632812 2.109375 -0.90625 C 2.109375 -1.175781 2.195312 -1.378906 2.375 -1.515625 C 2.414062 -1.554688 2.457031 -1.578125 2.5 -1.578125 C 2.5625 -1.578125 2.671875 -1.46875 2.828125 -1.25 C 3.160156 -0.769531 3.851562 -0.53125 4.90625 -0.53125 C 6.019531 -0.53125 6.941406 -1.035156 7.671875 -2.046875 C 8.441406 -3.140625 8.828125 -4.617188 8.828125 -6.484375 C 8.828125 -8.203125 8.488281 -9.582031 7.8125 -10.625 C 7.132812 -11.65625 6.273438 -12.171875 5.234375 -12.171875 C 4.398438 -12.171875 3.71875 -11.84375 3.1875 -11.1875 C 2.613281 -10.5 2.328125 -9.582031 2.328125 -8.4375 C 2.328125 -7.40625 2.597656 -6.5625 3.140625 -5.90625 C 3.691406 -5.238281 4.441406 -4.90625 5.390625 -4.90625 C 5.984375 -4.90625 6.476562 -5.132812 6.875 -5.59375 C 7.28125 -6.0625 7.484375 -6.675781 7.484375 -7.4375 C 7.484375 -7.570312 7.519531 -7.675781 7.59375 -7.75 C 7.675781 -7.832031 7.765625 -7.875 7.859375 -7.875 Z M 7.859375 -7.875 "/></g></g></g><g fill="#212121" fill-opacity="1"><g transform="translate(204.774706, 235.280697)"><g><path d="M 7.859375 -7.875 C 8.078125 -7.875 8.1875 -7.644531 8.1875 -7.1875 C 8.1875 -6.726562 8.097656 -6.289062 7.921875 -5.875 C 7.742188 -5.46875 7.507812 -5.113281 7.21875 -4.8125 C 6.570312 -4.144531 5.816406 -3.8125 4.953125 -3.8125 C 3.796875 -3.8125 2.800781 -4.226562 1.96875 -5.0625 C 1.125 -5.914062 0.703125 -6.953125 0.703125 -8.171875 C 0.703125 -9.390625 1.148438 -10.472656 2.046875 -11.421875 C 2.972656 -12.429688 4.117188 -12.9375 5.484375 -12.9375 C 6.984375 -12.9375 8.210938 -12.332031 9.171875 -11.125 C 10.085938 -9.945312 10.546875 -8.484375 10.546875 -6.734375 C 10.546875 -4.910156 9.96875 -3.296875 8.8125 -1.890625 C 8.09375 -1.003906 7.226562 -0.382812 6.21875 -0.03125 C 5.71875 0.144531 5.25 0.234375 4.8125 0.234375 C 4.375 0.234375 4 0.195312 3.6875 0.125 C 3.382812 0.0625 3.113281 -0.0195312 2.875 -0.125 C 2.363281 -0.375 2.109375 -0.632812 2.109375 -0.90625 C 2.109375 -1.175781 2.195312 -1.378906 2.375 -1.515625 C 2.414062 -1.554688 2.457031 -1.578125 2.5 -1.578125 C 2.5625 -1.578125 2.671875 -1.46875 2.828125 -1.25 C 3.160156 -0.769531 3.851562 -0.53125 4.90625 -0.53125 C 6.019531 -0.53125 6.941406 -1.035156 7.671875 -2.046875 C 8.441406 -3.140625 8.828125 -4.617188 8.828125 -6.484375 C 8.828125 -8.203125 8.488281 -9.582031 7.8125 -10.625 C 7.132812 -11.65625 6.273438 -12.171875 5.234375 -12.171875 C 4.398438 -12.171875 3.71875 -11.84375 3.1875 -11.1875 C 2.613281 -10.5 2.328125 -9.582031 2.328125 -8.4375 C 2.328125 -7.40625 2.597656 -6.5625 3.140625 -5.90625 C 3.691406 -5.238281 4.441406 -4.90625 5.390625 -4.90625 C 5.984375 -4.90625 6.476562 -5.132812 6.875 -5.59375 C 7.28125 -6.0625 7.484375 -6.675781 7.484375 -7.4375 C 7.484375 -7.570312 7.519531 -7.675781 7.59375 -7.75 C 7.675781 -7.832031 7.765625 -7.875 7.859375 -7.875 Z M 7.859375 -7.875 "/></g></g></g><g fill="#212121" fill-opacity="1"><g transform="translate(216.173982, 235.280697)"><g><path d="M 7.703125 -12.8125 C 7.910156 -12.832031 8.109375 -12.84375 8.296875 -12.84375 C 8.484375 -12.84375 8.578125 -12.785156 8.578125 -12.671875 C 8.578125 -12.597656 8.53125 -12.472656 8.4375 -12.296875 C 8.207031 -11.890625 8.046875 -11.582031 7.953125 -11.375 L 6 -6.796875 C 5.195312 -4.921875 4.796875 -3.203125 4.796875 -1.640625 C 4.796875 -1.109375 4.914062 -0.816406 5.15625 -0.765625 C 5.375 -0.710938 5.484375 -0.625 5.484375 -0.5 C 5.484375 -0.394531 5.367188 -0.285156 5.140625 -0.171875 C 4.703125 0.0351562 4.3125 0.140625 3.96875 0.140625 C 3.625 0.140625 3.363281 0.0546875 3.1875 -0.109375 C 3.019531 -0.273438 2.9375 -0.492188 2.9375 -0.765625 C 2.9375 -1.035156 2.960938 -1.332031 3.015625 -1.65625 C 3.066406 -1.976562 3.164062 -2.367188 3.3125 -2.828125 C 3.625 -3.773438 4.171875 -5.09375 4.953125 -6.78125 L 7.015625 -11.21875 C 6.273438 -11.289062 5.535156 -11.328125 4.796875 -11.328125 C 4.066406 -11.328125 3.539062 -11.328125 3.21875 -11.328125 C 2.894531 -11.328125 2.617188 -11.320312 2.390625 -11.3125 C 2.171875 -11.300781 1.988281 -11.285156 1.84375 -11.265625 C 1.695312 -11.253906 1.582031 -11.238281 1.5 -11.21875 C 1.34375 -11.175781 1.21875 -11.117188 1.125 -11.046875 C 0.945312 -10.921875 0.800781 -10.859375 0.6875 -10.859375 C 0.507812 -10.859375 0.421875 -10.960938 0.421875 -11.171875 C 0.421875 -11.316406 0.476562 -11.488281 0.59375 -11.6875 C 0.832031 -12.082031 0.960938 -12.34375 0.984375 -12.46875 C 1.046875 -12.71875 1.179688 -12.84375 1.390625 -12.84375 C 1.785156 -12.84375 2.238281 -12.828125 2.75 -12.796875 C 3.726562 -12.734375 4.472656 -12.703125 4.984375 -12.703125 C 5.503906 -12.703125 5.914062 -12.707031 6.21875 -12.71875 C 6.519531 -12.738281 6.789062 -12.753906 7.03125 -12.765625 C 7.28125 -12.785156 7.503906 -12.800781 7.703125 -12.8125 Z M 7.703125 -12.8125 "/></g></g></g></svg>